<svg width="24" height="24" viewBox="18 24 64 52" xmlns="http://www.w3.org/2000/svg"><path d="M62 20H38a.89.89 0 0 0-.87.88v2.91a.89.89 0 0 0 .87.88h24a.9.9 0 0 0 .87-.88v-2.91A.9.9 0 0 0 62 20m-18.71 7H38a.89.89 0 0 0-.87.88v1.74a.89.89 0 0 0 .87.88h5.25a.9.9 0 0 0 .88-.88v-1.74a.9.9 0 0 0-.84-.88m9.33 0h-5.24a.9.9 0 0 0-.88.88v1.74a.9.9 0 0 0 .88.88h5.24a.9.9 0 0 0 .88-.88v-1.74a.9.9 0 0 0-.88-.88M62 27h-5.29a.9.9 0 0 0-.88.88v1.74a.9.9 0 0 0 .88.88H62a.9.9 0 0 0 .87-.88v-1.74A.9.9 0 0 0 62 27m-18.71 5.83H38a.89.89 0 0 0-.87.88v1.75a.89.89 0 0 0 .87.87h5.25a.9.9 0 0 0 .88-.87v-1.75a.9.9 0 0 0-.84-.88m9.33 0h-5.24a.9.9 0 0 0-.88.88v1.75a.9.9 0 0 0 .88.87h5.24a.9.9 0 0 0 .88-.87v-1.75a.9.9 0 0 0-.88-.88m9.38 0h-5.29a.9.9 0 0 0-.88.88v1.75a.9.9 0 0 0 .88.87H62a.9.9 0 0 0 .87-.87v-1.75a.9.9 0 0 0-.87-.88m-18.71 5.84H38a.89.89 0 0 0-.87.87v1.75a.89.89 0 0 0 .87.88h5.25a.9.9 0 0 0 .88-.88v-1.75a.9.9 0 0 0-.84-.87m9.33 0h-5.24a.9.9 0 0 0-.88.87v1.75a.9.9 0 0 0 .88.88h5.24a.9.9 0 0 0 .88-.88v-1.75a.9.9 0 0 0-.88-.87m9.38 0h-5.29a.9.9 0 0 0-.88.87v1.75a.9.9 0 0 0 .88.88H62a.9.9 0 0 0 .87-.88v-1.75a.9.9 0 0 0-.87-.87M43.29 44.5H38a.89.89 0 0 0-.87.88v1.75A.89.89 0 0 0 38 48h5.25a.9.9 0 0 0 .88-.87v-1.75a.9.9 0 0 0-.84-.88m9.33 0h-5.24a.9.9 0 0 0-.88.88v1.75a.9.9 0 0 0 .88.87h5.24a.9.9 0 0 0 .88-.87v-1.75a.9.9 0 0 0-.88-.88m9.38 0h-5.29a.9.9 0 0 0-.88.88v1.75a.9.9 0 0 0 .88.87H62a.9.9 0 0 0 .87-.87v-1.75a.9.9 0 0 0-.87-.88m13.11 12.95H51.5v-5.32a1.5 1.5 0 1 0-3 0v5.32H24.89a1.5 1.5 0 0 0-1.5 1.5v7.86a1.5 1.5 0 0 0 3 0v-6.36H48.5v5.16a1.5 1.5 0 0 0 3 0v-5.16h22.11v6.36a1.5 1.5 0 0 0 3 0V59a1.5 1.5 0 0 0-1.5-1.55"/><circle cx="24.89" cy="74.71" r="4.89"/><circle cx="49.82" cy="74.71" r="4.89"/><circle cx="75.11" cy="74.71" r="4.89"/></svg>