<svg width="24" height="24" viewBox="0 0 24 24" fill="none" xmlns="http://www.w3.org/2000/svg">
  <path opacity=".34" d="M5 10h2q3 0 3-3V5q0-3-3-3H5Q2 2 2 5v2q0 3 3 3" stroke="#292D32" stroke-width="1.5" stroke-miterlimit="10" stroke-linecap="round" stroke-linejoin="round"/>
  <path d="M17 10h2q3 0 3-3V5q0-3-3-3h-2q-3 0-3 3v2q0 3 3 3" stroke="#292D32" stroke-width="1.5" stroke-miterlimit="10" stroke-linecap="round" stroke-linejoin="round"/>
  <path opacity=".34" d="M17 22h2q3 0 3-3v-2q0-3-3-3h-2q-3 0-3 3v2q0 3 3 3" stroke="#292D32" stroke-width="1.5" stroke-miterlimit="10" stroke-linecap="round" stroke-linejoin="round"/>
  <path d="M5 22h2q3 0 3-3v-2q0-3-3-3H5q-3 0-3 3v2q0 3 3 3" stroke="#292D32" stroke-width="1.5" stroke-miterlimit="10" stroke-linecap="round" stroke-linejoin="round"/>
</svg>
