<svg xmlns="http://www.w3.org/2000/svg" height="24" width="24" viewBox="0 0 433.362 433.362" xml:space="preserve"><path d="M254.139 125.413V72.49l-19.025-19.025h-36.872L179.216 72.49v52.923H0v254.485h433.362V125.413zm-60.923-47.124 10.824-10.824h25.274l10.824 10.824v68.896h-46.923zm226.146 287.609H14V139.413h165.216v21.771h74.923v-21.771h165.224z"/><path d="M27.458 352.068h147.678V178.343H27.458zm40.729-106.955c0-18.26 14.851-33.116 33.104-33.116 18.261 0 33.116 14.856 33.116 33.116a33.09 33.09 0 0 1-22.472 31.359l.802 13.479c23.408 4.938 40.873 24.692 43.398 48.118H46.459c2.525-23.425 19.99-43.179 43.398-48.118l.802-13.479a33.09 33.09 0 0 1-22.472-31.359m92.949-52.77V309.39c-6.925-11.948-17.33-21.752-29.961-27.839a47.09 47.09 0 0 0 17.232-36.438c0-25.98-21.137-47.116-47.116-47.116-25.974 0-47.104 21.136-47.104 47.116a47.09 47.09 0 0 0 17.232 36.438c-12.63 6.087-23.036 15.891-29.961 27.839V192.343zm70.71 6.842h158.839v14H231.846zm0 46.744h158.839v14H231.846z"/></svg>