<svg data-v-0dd9719b="" version="1.0" xmlns="http://www.w3.org/2000/svg" xmlns:xlink="http://www.w3.org/1999/xlink" width="100%" height="100%" viewBox="70 100 200.000000 50.000000" preserveAspectRatio="xMidYMid meet" color-interpolation-filters="sRGB" style="margin: auto;"> <rect data-v-0dd9719b="" x="0" y="0" width="100%" height="100%" fill="#feffff" fill-opacity="0" class="background"></rect> <rect data-v-0dd9719b="" x="0" y="0" width="100%" height="100%" fill="url(#watermark)" fill-opacity="1" class="watermarklayer"></rect> <g data-v-0dd9719b="" fill="#1A1A1A" class="iconlinesvg-g iconlinesvg" transform="translate(80.06236267089844,105.58551979064941)"><g class="tp-name" transform="matrix(1,0,0,1,0,0)" opacity="1"><g transform="translate(0, 2.0652482267911196)"><g><g class="imagesvg"><g><rect fill="#1A1A1A" fill-opacity="0" stroke-width="2" x="0" y="0" width="37.33699744683878" height="34.69465269740446" class="image-rect"></rect> <svg x="0" y="0" width="37.33699744683878" height="34.69465269740446" filtersec="colorsb3230293290" class="image-svg-svg primary" style="overflow: visible;"><svg xmlns="http://www.w3.org/2000/svg" viewBox="0 0 72.20999908447266 67.0999984741211"><title>h24</title><g data-name="图层 2"><g data-name="Layer 1" fill="#ed1c24"><path d="M66.07 25.4H22.84L26.44 0H9.38L0 67.1h17.06l3.51-25.3H61.79l10.42-7.66-6.14-8.74z"></path><path d="M62.84 0H45.78l-2.91 20.49h17.1L62.84 0zM36.4 67.1h17.05l2.86-20.39H39.22L36.4 67.1z"></path></g></g></svg></svg> <!----></g></g></g></g><g transform="translate(41, 0)"><g data-gra="path-name" fill="#1A1A1A" transform="scale(1)"><path d="M6.07 0L6.07 0Q4.92 0 4.01-0.72Q3.10-1.45 3.10-2.52L3.10-2.52L3.10-26.39Q3.10-27.47 3.82-28.19Q4.54-28.91 5.62-28.91L5.62-28.91L17.51-28.91Q19.66-28.91 21.54-27.78Q23.42-26.64 24.58-24.64Q25.73-22.63 25.73-20.03L25.73-20.03Q25.73-18.46 25.09-16.98Q24.45-15.49 23.36-14.29Q22.26-13.09 20.90-12.43L20.90-12.43L20.94-13.38Q22.10-12.76 22.86-11.92Q23.63-11.07 24.06-10.10Q24.49-9.13 24.58-8.01L24.58-8.01Q24.74-6.98 24.80-6.20Q24.86-5.41 25.05-4.87Q25.24-4.34 25.77-4.05L25.77-4.05Q26.68-3.51 26.91-2.50Q27.14-1.49 26.43-0.70L26.43-0.70Q25.98-0.17 25.28-0.02Q24.58 0.12 23.87-0.02Q23.17-0.17 22.72-0.41L22.72-0.41Q22.01-0.83 21.31-1.63Q20.61-2.44 20.18-3.80Q19.74-5.16 19.74-7.31L19.74-7.31Q19.74-8.01 19.50-8.61Q19.25-9.21 18.79-9.64Q18.34-10.08 17.64-10.31Q16.93-10.53 15.98-10.53L15.98-10.53L7.64-10.53L8.26-11.48L8.26-2.52Q8.26-1.45 7.68-0.72Q7.10 0 6.07 0ZM8.26-13.80L7.68-14.79L17.31-14.79Q18.05-14.79 18.75-15.47Q19.45-16.15 19.91-17.33Q20.36-18.50 20.36-19.91L20.36-19.91Q20.36-21.73 19.39-22.94Q18.42-24.16 17.31-24.16L17.31-24.16L7.77-24.16L8.26-25.48L8.26-13.80Z" transform="translate(-3.0977512620468106, 30.56447911886187)"></path></g></g><g transform="translate(68, 0)"><g data-gra="path-name" fill="#1A1A1A" transform="scale(1)"><path d="M5.70-28.95L5.70-28.95Q6.28-28.95 6.92-28.64Q7.56-28.33 7.89-27.84L7.89-27.84L17.93-12.39L15.86-12.47L26.15-27.84Q26.93-28.95 28.17-28.95L28.17-28.95Q29.16-28.95 29.94-28.25Q30.73-27.55 30.73-26.43L30.73-26.43L30.73-2.52Q30.73-1.45 30.03-0.72Q29.33 0 28.17 0L28.17 0Q27.01 0 26.29-0.72Q25.57-1.45 25.57-2.52L25.57-2.52L25.57-21.97L27.18-21.60L18.75-8.76Q18.38-8.30 17.82-7.97Q17.26-7.64 16.69-7.68L16.69-7.68Q16.15-7.64 15.59-7.97Q15.03-8.30 14.66-8.76L14.66-8.76L6.77-21.23L7.85-23.42L7.85-2.52Q7.85-1.45 7.19-0.72Q6.53 0 5.45 0L5.45 0Q4.42 0 3.76-0.72Q3.10-1.45 3.10-2.52L3.10-2.52L3.10-26.43Q3.10-27.47 3.86-28.21Q4.63-28.95 5.70-28.95Z" transform="translate(-3.0977512620468106, 30.56447911886187)"></path></g></g><g transform="translate(99, 0)"><g data-gra="path-name" fill="#1A1A1A" transform="scale(1)"><path d="M14.13-22.51L14.13-22.51Q17.02-22.51 19.31-21.04Q21.60-19.58 22.94-17.02Q24.29-14.46 24.29-11.07L24.29-11.07Q24.29-7.68 22.94-5.10Q21.60-2.52 19.35-1.05Q17.10 0.41 14.29 0.41L14.29 0.41Q12.64 0.41 11.19-0.12Q9.75-0.66 8.65-1.49Q7.56-2.31 6.96-3.16Q6.36-4.01 6.36-4.58L6.36-4.58L7.64-5.12L7.64 5.74Q7.64 6.82 6.94 7.54Q6.24 8.26 5.16 8.26L5.16 8.26Q4.09 8.26 3.39 7.56Q2.68 6.86 2.68 5.74L2.68 5.74L2.68-19.58Q2.68-20.65 3.39-21.37Q4.09-22.10 5.16-22.10L5.16-22.10Q6.24-22.10 6.94-21.37Q7.64-20.65 7.64-19.58L7.64-19.58L7.64-17.55L6.94-17.93Q6.94-18.46 7.52-19.23Q8.10-19.99 9.09-20.75Q10.08-21.52 11.38-22.01Q12.68-22.51 14.13-22.51ZM13.51-17.97L13.51-17.97Q11.69-17.97 10.33-17.06Q8.96-16.15 8.20-14.60Q7.43-13.05 7.43-11.07L7.43-11.07Q7.43-9.13 8.20-7.54Q8.96-5.95 10.33-5.04Q11.69-4.13 13.51-4.13L13.51-4.13Q15.32-4.13 16.67-5.04Q18.01-5.95 18.77-7.54Q19.54-9.13 19.54-11.07L19.54-11.07Q19.54-13.05 18.77-14.60Q18.01-16.15 16.67-17.06Q15.32-17.97 13.51-17.97Z" transform="translate(-2.6847177604405696, 30.56447911886187)"></path></g></g><g transform="translate(124, 0)"><g data-gra="path-name" fill="#1A1A1A" transform="scale(1)"><path d="M8.05-28.04L8.05-2.52Q8.05-1.45 7.33-0.72Q6.61 0 5.53 0L5.53 0Q4.50 0 3.80-0.72Q3.10-1.45 3.10-2.52L3.10-2.52L3.10-28.04Q3.10-29.12 3.82-29.84Q4.54-30.56 5.62-30.56L5.62-30.56Q6.69-30.56 7.37-29.84Q8.05-29.12 8.05-28.04L8.05-28.04Z" transform="translate(-3.09775126204681, 30.56447911886187)"></path></g></g><g transform="translate(132, 0)"><g data-gra="path-name" fill="#1A1A1A" transform="scale(1)"><path d="M7.35-19.58L7.35-2.52Q7.35-1.45 6.65-0.72Q5.95 0 4.87 0L4.87 0Q3.80 0 3.10-0.72Q2.40-1.45 2.40-2.52L2.40-2.52L2.40-19.58Q2.40-20.65 3.10-21.37Q3.80-22.10 4.87-22.10L4.87-22.10Q5.95-22.10 6.65-21.37Q7.35-20.65 7.35-19.58L7.35-19.58ZM4.83-24.78L4.83-24.78Q3.43-24.78 2.85-25.24Q2.27-25.69 2.27-26.85L2.27-26.85L2.27-27.63Q2.27-28.83 2.91-29.26Q3.55-29.70 4.87-29.70L4.87-29.70Q6.32-29.70 6.90-29.24Q7.48-28.79 7.48-27.63L7.48-27.63L7.48-26.85Q7.48-25.65 6.86-25.22Q6.24-24.78 4.83-24.78Z" transform="translate(-2.2716842588343273, 30.56447911886187)"></path></g></g><g transform="translate(141, 0)"><g data-gra="path-name" fill="#1A1A1A" transform="scale(1)"><path d="M14.04-30.56L14.04-30.56Q14.95-30.56 15.82-30.32Q16.69-30.07 17.26-29.51Q17.84-28.95 17.84-28.04L17.84-28.04Q17.84-27.01 17.24-26.41Q16.65-25.81 15.86-25.81L15.86-25.81Q15.49-25.81 14.75-26.00Q14.00-26.19 13.30-26.19L13.30-26.19Q12.27-26.19 11.71-25.73Q11.15-25.28 10.95-24.68Q10.74-24.08 10.74-23.63L10.74-23.63L10.74-2.52Q10.74-1.45 10.04-0.72Q9.33 0 8.26 0L8.26 0Q7.19 0 6.48-0.72Q5.78-1.45 5.78-2.52L5.78-2.52L5.78-23.58Q5.78-26.52 7.85-28.54Q9.91-30.56 14.04-30.56ZM3.55-21.68L14.50-21.68Q15.49-21.68 16.15-21.04Q16.81-20.40 16.81-19.41L16.81-19.41Q16.81-18.42 16.15-17.78Q15.49-17.14 14.50-17.14L14.50-17.14L3.55-17.14Q2.56-17.14 1.90-17.78Q1.24-18.42 1.24-19.41L1.24-19.41Q1.24-20.40 1.90-21.04Q2.56-21.68 3.55-21.68L3.55-21.68Z" transform="translate(-1.2391005048187245, 30.56447911886187)"></path></g></g><g transform="translate(161, 0)"><g data-gra="path-name" fill="#1A1A1A" transform="scale(1)"><path d="M19.08-22.10L19.08-22.10Q20.16-22.10 20.86-21.37Q21.56-20.65 21.56-19.58L21.56-19.58L21.56-2.02Q21.56 1.78 20.14 4.03Q18.71 6.28 16.31 7.27Q13.92 8.26 10.95 8.26L10.95 8.26Q9.62 8.26 8.14 8.05Q6.65 7.85 5.70 7.43L5.70 7.43Q4.46 6.90 3.99 6.09Q3.51 5.29 3.80 4.38L3.80 4.38Q4.17 3.18 5.00 2.75Q5.82 2.31 6.73 2.64L6.73 2.64Q7.39 2.85 8.47 3.28Q9.54 3.72 10.95 3.72L10.95 3.72Q12.85 3.72 14.11 3.20Q15.36 2.68 16.01 1.47Q16.65 0.25 16.65-1.86L16.65-1.86L16.65-4.63L17.51-3.63Q16.81-2.27 15.76-1.38Q14.70-0.50 13.26-0.04Q11.81 0.41 9.95 0.41L9.95 0.41Q7.77 0.41 6.13-0.60Q4.50-1.61 3.59-3.41Q2.68-5.20 2.68-7.52L2.68-7.52L2.68-19.58Q2.68-20.65 3.39-21.37Q4.09-22.10 5.16-22.10L5.16-22.10Q6.24-22.10 6.94-21.37Q7.64-20.65 7.64-19.58L7.64-19.58L7.64-9.00Q7.64-6.32 8.82-5.22Q10.00-4.13 12.10-4.13L12.10-4.13Q13.55-4.13 14.54-4.69Q15.53-5.25 16.07-6.34Q16.60-7.43 16.60-9.00L16.60-9.00L16.60-19.58Q16.60-20.65 17.31-21.37Q18.01-22.10 19.08-22.10Z" transform="translate(-2.684717760440569, 30.56447911886187)"></path></g></g></g> <!----></g><defs v-gra="od"></defs></svg>