<svg version="1.0" xmlns="http://www.w3.org/2000/svg" viewBox="75 100 190 50" color-interpolation-filters="sRGB" style="margin:auto">
  <rect width="100%" height="100%" fill="none" class="background"/>
  <rect width="100%" height="100%" fill="url(#watermark)" class="watermarklayer"/>
  <g fill="#333" class="iconlinesvg-g iconlinesvg">
    <g class="tp-name">
      <path fill="#fff" d="M102.39 106.275v22.98h-8.14l-8.39-16.19h-.14q.29 3.82.29 5.83v10.36h-5.5v-22.98h8.11l8.36 15.97h.1q-.22-3.47-.22-5.58v-10.39zm19.96 22.98h-4.26l-1.18-2.36h-.13q-1.24 1.54-2.53 2.11-1.29.56-3.33.56-2.52 0-3.96-1.5-1.45-1.51-1.45-4.25 0-2.84 1.98-4.23t5.74-1.57l2.97-.09v-.25q0-2.2-2.17-2.2-1.95 0-4.95 1.32l-1.78-4.06q3.12-1.6 7.86-1.6 3.43 0 5.31 1.7 1.88 1.69 1.88 4.74zm-8.82-4.02q1.11 0 1.91-.71.79-.71.79-1.84v-1.38l-1.41.06q-3.04.11-3.04 2.23 0 1.64 1.75 1.64" data-gra="path-name"/>
      <g transform="translate(125.513 106.863)" class="imagesvg">
        <path class="image-rect" fill="none" d="M0 0h15.21v22.122H0z"/>
        <svg filter="url(#a)" width="15.21" height="22.122" class="image-svg-svg primary" style="overflow:visible" fill="$fff" stroke="white">
          <svg xmlns="http://www.w3.org/2000/svg" viewBox="0.005 0.01 44.78 65.13">
            <g data-name="tl-2">
              <g data-name="tl-1">
                <path fill="#fff" storke="#fff" d="M20.86 20.41H41.7a20.85 20.85 0 1 0-20.85 21.3Z"/>
                <path fill="#fff" d="M23.93 44.74H3.09a20.85 20.85 0 1 0 20.85-21.3Z"/>
              </g>
            </g>
          </svg>
        </svg>
        <defs>
          <filter id="a">
            <feColorMatrix fill="#fff" values="0 0 0 0 0.19921875 0 0 0 0 0.19921875 0 0 0 0 0.19921875 0 0 0 1 0" class="icon-fecolormatrix"/>
          </filter>
        </defs>
      </g>
      <path fill="#fff" d="M154.52 124.715q1.25 0 2.97-.61v4.47q-1.24.54-2.36.77-1.12.22-2.63.22-3.1 0-4.47-1.51-1.36-1.52-1.36-4.66v-7.34h-2.16v-2.5l2.74-1.93 1.58-3.74h4.03v3.56h4.37v4.61h-4.37v6.93q0 1.73 1.66 1.73m22.83 4.54h-4.26l-1.18-2.36h-.13q-1.24 1.54-2.53 2.11-1.29.56-3.33.56-2.52 0-3.96-1.5-1.45-1.51-1.45-4.25 0-2.84 1.98-4.23t5.74-1.57l2.97-.09v-.25q0-2.2-2.17-2.2-1.95 0-4.95 1.32l-1.78-4.06q3.12-1.6 7.86-1.6 3.43 0 5.31 1.7 1.88 1.69 1.88 4.74zm-8.82-4.02q1.11 0 1.91-.71.79-.71.79-1.84v-1.38l-1.41.06q-3.04.11-3.04 2.23 0 1.64 1.75 1.64m27.9 4.02h-5.91l-4.69-16.55h-.15q.33 4.23.33 6.57v9.98h-5.5v-22.98h8.27l4.79 16.32h.13l4.7-16.32h8.28v22.98h-5.7v-10.07q0-.79.02-1.75t.21-4.7h-.14zm30.92 0h-4.26l-1.18-2.36h-.13q-1.24 1.54-2.53 2.11-1.29.56-3.33.56-2.52 0-3.96-1.5-1.45-1.51-1.45-4.25 0-2.84 1.98-4.23t5.74-1.57l2.97-.09v-.25q0-2.2-2.17-2.2-1.95 0-4.95 1.32l-1.78-4.06q3.12-1.6 7.86-1.6 3.43 0 5.31 1.7 1.88 1.69 1.88 4.74zm-8.82-4.02q1.11 0 1.91-.71.79-.71.79-1.84v-1.38l-1.41.06q-3.04.11-3.04 2.23 0 1.64 1.75 1.64m22.731-14.1q.8 0 1.53.12l.34.07-.55 5.8q-.75-.19-2.09-.19-2.01 0-2.92.92t-.91 2.65v8.75h-6.15v-17.81h4.58l.95 2.85h.3q.77-1.42 2.15-2.29 1.37-.87 2.77-.87m15.259 13.58q1.25 0 2.97-.61v4.47q-1.24.54-2.36.77-1.12.22-2.63.22-3.1 0-4.47-1.51-1.36-1.52-1.36-4.66v-7.34h-2.16v-2.5l2.74-1.93 1.58-3.74h4.03v3.56h4.37v4.61h-4.37v6.93q0 1.73 1.66 1.73" data-gra="path-name"/>
    </g>
    <path fill="#fff" d="M85.513 139.148h20.385v1H85.513zm148.595 0h20.385v1h-20.385zm-125.21-3.434v7.87h2.51c.44 0 .84-.05 1.21-.14.37-.1.68-.24.95-.44.26-.19.47-.43.61-.72.14-.28.22-.62.22-1q0-.825-.48-1.29t-1.35-.6v-.05c.47-.12.81-.33 1.03-.65.23-.32.34-.67.34-1.06 0-.35-.07-.64-.2-.88-.13-.25-.31-.45-.55-.6s-.52-.26-.85-.33c-.33-.08-.7-.11-1.1-.11Zm2.16 3.36h-1.16v-2.57h1.21c.61 0 1.08.09 1.38.28.31.19.47.5.47.93 0 .44-.15.78-.44 1.01s-.78.35-1.46.35m.2 3.72h-1.36v-2.98h1.36c.7 0 1.23.12 1.6.34.37.23.55.59.55 1.08 0 .53-.19.93-.56 1.18-.38.25-.91.38-1.59.38m4.7-7.08v7.87h4.65v-.85h-3.66v-2.86h2.99v-.85h-2.99v-2.47h3.54v-.84Zm6.34 6.15-.6.7c.35.36.76.64 1.23.85s.98.31 1.53.31c.42 0 .79-.05 1.12-.17q.495-.18.84-.48c.23-.2.41-.44.53-.71.13-.28.19-.57.19-.88 0-.29-.04-.54-.13-.76-.08-.22-.19-.41-.34-.58-.14-.16-.31-.31-.51-.43s-.42-.23-.64-.33l-1.12-.48c-.16-.06-.31-.13-.46-.21-.16-.08-.3-.16-.42-.26-.13-.1-.23-.22-.31-.35s-.11-.3-.11-.49c0-.36.13-.64.4-.84.27-.21.62-.31 1.06-.31.37 0 .7.07.99.2s.56.31.8.54l.54-.64a3.3 3.3 0 0 0-1.02-.71c-.4-.18-.84-.27-1.31-.27-.36 0-.69.06-.99.16s-.56.25-.78.44-.39.41-.52.66c-.12.26-.18.54-.18.83s.05.54.14.76c.1.22.22.41.37.57.16.16.33.3.52.41s.38.21.56.29l1.13.49c.19.09.36.17.52.25s.3.17.41.27c.12.1.21.22.28.36s.1.31.1.51c0 .39-.14.7-.43.93-.29.24-.69.36-1.21.36-.41 0-.81-.09-1.19-.27q-.57-.27-.99-.72m7.78-5.31v7.03h1.01v-7.03h2.37v-.84h-5.76v.84Zm7.25 5.31-.6.7a3.75 3.75 0 0 0 2.76 1.16c.41 0 .79-.05 1.11-.17q.495-.18.84-.48c.24-.2.41-.44.54-.71.12-.28.18-.57.18-.88 0-.29-.04-.54-.12-.76-.09-.22-.2-.41-.34-.58-.15-.16-.32-.31-.52-.43s-.41-.23-.64-.33l-1.11-.48c-.16-.06-.32-.13-.47-.21s-.29-.16-.42-.26-.23-.22-.31-.35c-.07-.13-.11-.3-.11-.49 0-.36.13-.64.4-.84.27-.21.62-.31 1.06-.31.37 0 .7.07.99.2.3.13.56.31.8.54l.54-.64a3.3 3.3 0 0 0-1.02-.71c-.4-.18-.83-.27-1.31-.27-.36 0-.69.06-.99.16s-.56.25-.78.44q-.33.285-.51.66c-.13.26-.19.54-.19.83s.05.54.15.76c.09.22.22.41.37.57s.32.3.51.41c.2.11.38.21.57.29l1.13.49c.18.09.35.17.51.25q.24.12.42.27.165.15.27.36c.07.14.1.31.1.51 0 .39-.14.7-.43.93-.29.24-.69.36-1.21.36-.41 0-.8-.09-1.18-.27q-.57-.27-.99-.72m6.38-6.15v7.87h.95v-4.12c0-.41-.01-.83-.04-1.24l-.09-1.22h.05l.85 1.62 2.85 4.96h1.04v-7.87h-.95v4.07c0 .41.01.83.04 1.26s.05.84.08 1.24h-.05l-.85-1.63-2.85-4.94Zm11.11 4.67h-2.36l.37-1.2c.15-.44.28-.88.41-1.32.13-.43.25-.88.37-1.34h.05c.13.46.26.91.38 1.34.13.44.27.88.41 1.32Zm.26.8.74 2.4h1.07l-2.67-7.87h-1.12l-2.67 7.87h1.02l.76-2.4Zm2.35-1.54c0 .64.08 1.22.26 1.73.17.5.41.93.72 1.28.3.35.67.61 1.09.8.42.18.88.27 1.37.27.51 0 .95-.1 1.35-.3q.585-.3 1.05-.84l-.56-.61c-.26.28-.53.5-.81.65-.29.15-.62.23-1 .23s-.72-.08-1.02-.23-.55-.37-.76-.65-.37-.62-.49-1.01c-.11-.4-.17-.84-.17-1.34q0-.735.18-1.32c.12-.39.29-.73.5-1 .22-.28.48-.49.78-.64.31-.15.65-.22 1.02-.22.34 0 .63.07.89.2.25.13.48.31.69.53l.56-.63c-.23-.26-.53-.49-.89-.68q-.54-.3-1.26-.3c-.5 0-.97.1-1.4.29q-.63.27-1.11.81c-.31.35-.55.78-.73 1.28-.17.5-.26 1.07-.26 1.7m7.31-3.93v7.87h.99v-2.5l1.36-1.59 2.35 4.09h1.12l-2.85-4.87 2.46-3h-1.13l-3.27 3.95h-.04v-3.95Zm6.8 6.15-.6.7c.34.36.75.64 1.22.85.48.21.99.31 1.54.31.42 0 .79-.05 1.12-.17q.48-.18.84-.48c.23-.2.41-.44.53-.71a2.2 2.2 0 0 0 .06-1.64c-.08-.22-.2-.41-.34-.58-.15-.16-.32-.31-.52-.43q-.3-.18-.63-.33l-1.12-.48c-.16-.06-.32-.13-.47-.21s-.29-.16-.42-.26a1.1 1.1 0 0 1-.3-.35.94.94 0 0 1-.12-.49c0-.36.14-.64.4-.84.27-.21.63-.31 1.07-.31.36 0 .69.07.99.2.29.13.55.31.79.54l.54-.64a3.3 3.3 0 0 0-1.02-.71c-.4-.18-.83-.27-1.3-.27-.36 0-.69.06-.99.16s-.56.25-.78.44-.4.41-.52.66c-.12.26-.19.54-.19.83s.05.54.15.76c.09.22.22.41.37.57s.32.3.52.41c.19.11.38.21.56.29l1.13.49c.18.09.35.17.51.25q.24.12.42.27a1.13 1.13 0 0 1 .38.87c0 .39-.15.7-.44.93-.28.24-.69.36-1.21.36-.41 0-.8-.09-1.18-.27q-.57-.27-.99-.72m8.83 0-.6.7c.35.36.75.64 1.23.85.47.21.98.31 1.53.31.42 0 .79-.05 1.12-.17q.495-.18.84-.48c.23-.2.41-.44.53-.71.13-.28.19-.57.19-.88 0-.29-.04-.54-.13-.76-.08-.22-.2-.41-.34-.58a2.2 2.2 0 0 0-.52-.43q-.3-.18-.63-.33l-1.12-.48a5 5 0 0 1-.47-.21c-.15-.08-.29-.16-.42-.26-.12-.1-.23-.22-.3-.35a.94.94 0 0 1-.12-.49c0-.36.14-.64.41-.84.26-.21.62-.31 1.06-.31.37 0 .7.07.99.2s.56.31.8.54l.54-.64a3.3 3.3 0 0 0-1.02-.71c-.4-.18-.84-.27-1.31-.27-.36 0-.69.06-.99.16s-.56.25-.78.44-.39.41-.52.66c-.12.26-.18.54-.18.83s.04.54.14.76.22.41.37.57.33.3.52.41.38.21.56.29l1.13.49c.18.09.36.17.52.25s.29.17.41.27.21.22.28.36c.06.14.1.31.1.51 0 .39-.15.7-.43.93-.29.24-.7.36-1.22.36-.4 0-.8-.09-1.18-.27q-.57-.27-.99-.72m9.29 1.86c.5 0 .95-.09 1.36-.28.41-.2.77-.47 1.07-.83.3-.35.53-.78.7-1.29q.24-.765.24-1.71c0-.63-.08-1.19-.24-1.69-.17-.5-.4-.92-.7-1.27s-.66-.62-1.07-.8c-.41-.19-.86-.29-1.36-.29s-.95.1-1.36.28-.77.45-1.06.8c-.3.35-.53.77-.69 1.27-.17.5-.25 1.07-.25 1.7s.08 1.2.25 1.71q.24.765.69 1.29c.29.36.65.63 1.06.83.41.19.86.28 1.36.28m0-.87c-.35 0-.67-.08-.95-.23-.29-.15-.53-.37-.74-.65-.2-.29-.36-.63-.47-1.02-.11-.4-.17-.85-.17-1.34s.06-.93.17-1.32.27-.73.47-1c.21-.27.45-.48.74-.63.28-.15.6-.22.95-.22s.67.07.95.22c.29.15.53.36.74.63.2.27.36.61.47 1s.17.83.17 1.32-.06.94-.17 1.34c-.11.39-.27.73-.47 1.02-.21.28-.45.5-.74.65-.28.15-.6.23-.95.23m5.06-7.14v7.87h4.44v-.85h-3.44v-7.02Zm5.45 0v4.62c0 .63.07 1.16.22 1.59.14.44.34.79.59 1.05.25.27.55.46.9.58s.72.17 1.12.17.78-.05 1.12-.17.64-.31.89-.58c.26-.26.45-.61.6-1.05q.21-.645.21-1.59v-4.62h-.96v4.64c0 .47-.04.87-.14 1.19s-.23.58-.4.77c-.16.19-.36.33-.58.41-.23.09-.47.13-.74.13-.25 0-.49-.04-.72-.13-.22-.08-.41-.22-.58-.41-.16-.19-.29-.45-.39-.77-.09-.32-.14-.72-.14-1.19v-4.64Zm9.41.84v7.03h1.01v-7.03h2.37v-.84h-5.76v.84Zm4.8-.84v7.87h1v-7.87Zm6.06 8.01c.5 0 .95-.09 1.36-.28.41-.2.77-.47 1.07-.83.3-.35.53-.78.7-1.29q.24-.765.24-1.71c0-.63-.08-1.19-.24-1.69-.17-.5-.4-.92-.7-1.27s-.66-.62-1.07-.8c-.41-.19-.86-.29-1.36-.29s-.95.1-1.36.28-.77.45-1.06.8c-.3.35-.53.77-.69 1.27-.17.5-.25 1.07-.25 1.7s.08 1.2.25 1.71q.24.765.69 1.29c.29.36.65.63 1.06.83.41.19.86.28 1.36.28m0-.87c-.35 0-.67-.08-.95-.23-.29-.15-.53-.37-.74-.65-.2-.29-.36-.63-.47-1.02-.11-.4-.17-.85-.17-1.34s.06-.93.17-1.32.27-.73.47-1c.21-.27.45-.48.74-.63.28-.15.6-.22.95-.22s.67.07.95.22c.29.15.53.36.74.63.2.27.36.61.47 1s.17.83.17 1.32-.06.94-.17 1.34c-.11.39-.27.73-.47 1.02-.21.28-.45.5-.74.65-.28.15-.6.23-.95.23m5.06-7.14v7.87h.95v-4.12c0-.41-.01-.83-.04-1.24l-.09-1.22h.05l.85 1.62 2.86 4.96h1.03v-7.87h-.95v4.07c0 .41.01.83.04 1.26s.06.84.08 1.24h-.05l-.85-1.63-2.84-4.94Z" data-gra="path-slogan" class="tp-slogan"/>
  </g>
</svg>
