<svg xmlns="http://www.w3.org/2000/svg" viewBox="427.62 832.15 592.18 80.25">   <defs>     <linearGradient x1="0" y1="0" x2="1" y2="0" gradientUnits="userSpaceOnUse" gradientTransform="matrix(93.0155 37.68272 37.68272 -93.0155 466.563 668.51)" spreadMethod="pad" id="b">       <stop style="stop-opacity:1;stop-color:#017bce" offset="0"/>       <stop style="stop-opacity:1;stop-color:#019e8f" offset="1"/>     </linearGradient>     <linearGradient x1="0" y1="0" x2="1" y2="0" gradientUnits="userSpaceOnUse" gradientTransform="scale(118.06824 -118.06824)rotate(-73.48 -.814 -4.806)" spreadMethod="pad" id="c">       <stop style="stop-opacity:1;stop-color:#e51cd8" offset="0"/>       <stop style="stop-opacity:1;stop-color:#635be8" offset="1"/>     </linearGradient>     <linearGradient x1="0" y1="0" x2="1" y2="0" gradientUnits="userSpaceOnUse" gradientTransform="scale(141.93391 -141.93391)rotate(45 7.366 2.315)" spreadMethod="pad" id="d">       <stop style="stop-opacity:1;stop-color:#bd1cc2" offset="0"/>       <stop style="stop-opacity:1;stop-color:#f5561c" offset="1"/>     </linearGradient>     <clipPath clipPathUnits="userSpaceOnUse" id="a">       <path d="M0 1080h1080V0H0Z"/>     </clipPath>   </defs>   <g clip-path="url(#a)" transform="matrix(1.33333 0 0 -1.33333 0 1440)">     <path d="M0 0h-13.979l-12.54 23.13q-1.695 3.134.085 6.1 1.779 2.965 5.337 2.965 2.711 0 4.618 1.95 1.906 1.947 1.906 4.575 0 2.709-1.906 4.66-1.907 1.948-4.618 1.948h-11.438V0H-44.82v57.613h23.723q7.794 0 13.303-5.507 5.506-5.507 5.506-13.386 0-7.796-5.506-13.302a19 19 0 0 0-4.237-3.22z" style="fill:#000;fill-opacity:1;fill-rule:nonzero;stroke:none" transform="translate(365.552 396.99)"/>     <path d="M0 0h24.147v-12.285h-36.432v57.613h34.738V33.043H0v-9.065h20.758V11.692H0Z" style="fill:#000;fill-opacity:1;fill-rule:nonzero;stroke:none" transform="translate(385.293 409.274)"/>     <path d="M0 0h13.047L-7.372-54.902q-.678-1.865-2.245-2.923t-3.516-1.059a6.34 6.34 0 0 0-3.558 1.059q-1.612 1.058-2.203 2.923L-39.397 0h13.047l13.217-36.008z" style="fill:#000;fill-opacity:1;fill-rule:nonzero;stroke:none" transform="translate(452.227 454.603)"/>     <path d="M0 0q5.21-5.21 12.582-5.21 7.37 0 12.582 5.21 5.21 5.211 5.21 12.582t-5.21 12.582q-5.212 5.211-12.582 5.211-7.372 0-12.582-5.211t-5.211-12.582T0 0m33.848 33.849q4.066-4.068 6.439-9.575 2.372-5.508 2.372-11.692 0-6.186-2.372-11.692-2.373-5.508-6.439-9.574-4.067-4.068-9.574-6.439-5.509-2.372-11.692-2.372-6.186 0-11.692 2.372a29.8 29.8 0 0 0-9.575 6.439Q-12.752-4.618-15.124.89q-2.373 5.506-2.372 11.692 0 6.184 2.372 11.692 2.372 5.507 6.439 9.575A29.8 29.8 0 0 0 .89 40.287q5.506 2.372 11.692 2.373 6.183 0 11.692-2.373 5.507-2.372 9.574-6.438" style="fill:#000;fill-opacity:1;fill-rule:nonzero;stroke:none" transform="translate(483.618 413.214)"/>     <path d="M0 0h22.452v-12.285h-34.738v57.613H0Z" style="fill:#000;fill-opacity:1;fill-rule:nonzero;stroke:none" transform="translate(547.459 409.274)"/>     <path d="M0 0q5.211-5.21 12.582-5.21 7.37 0 12.582 5.21 5.21 5.211 5.21 12.582t-5.21 12.582q-5.212 5.211-12.582 5.211T0 25.164t-5.211-12.582T0 0m33.848 33.849q4.066-4.068 6.439-9.575 2.371-5.508 2.372-11.692Q42.658 6.396 40.287.89q-2.373-5.508-6.439-9.574-4.067-4.068-9.575-6.439t-11.691-2.372q-6.186 0-11.692 2.372a29.8 29.8 0 0 0-9.575 6.439Q-12.752-4.618-15.123.89q-2.373 5.506-2.373 11.692 0 6.184 2.373 11.692 2.37 5.507 6.438 9.575A29.8 29.8 0 0 0 .89 40.287q5.506 2.372 11.692 2.373 6.184 0 11.691-2.373 5.508-2.372 9.575-6.438" style="fill:#000;fill-opacity:1;fill-rule:nonzero;stroke:none" transform="translate(589.102 413.214)"/>     <path d="M0 0h-6.854v26.681h-30.269V0h-6.854v58.501h6.854V32.84h30.269v25.661H0Z" style="fill:#231f20;fill-opacity:1;fill-rule:nonzero;stroke:none" transform="translate(707.554 396.99)"/>     <path d="M0 0v-21.214h9.301q2.57 0 4.753.776 2.183.774 3.773 2.223t2.488 3.549.898 4.712q0 4.69-3.039 7.322T9.383 0Zm35.084-52.3h-8.159l-9.791 16.4q-1.347 2.284-2.612 3.896-1.265 1.611-2.589 2.631a9 9 0 0 1-2.856 1.489q-1.53.47-3.447.469H0V-52.3h-6.854V6.201h17.46q3.835 0 7.079-.959 3.244-.958 5.629-2.917Q25.7.368 27.047-2.55q1.346-2.916 1.347-6.833 0-3.06-.918-5.609a14.7 14.7 0 0 0-2.612-4.549q-1.693-2-4.079-3.406-2.387-1.408-5.365-2.183v-.163q1.469-.654 2.55-1.489a14 14 0 0 0 2.06-1.979 26 26 0 0 0 1.938-2.591q.957-1.447 2.141-3.365z" style="fill:#231f20;fill-opacity:1;fill-rule:nonzero;stroke:none" transform="translate(729.747 449.29)"/>   </g>    </svg>