<svg xmlns="http://www.w3.org/2000/svg" viewBox="618.68 493.73 202.63 256.05">   <defs>     <linearGradient x1="0" y1="0" x2="1" y2="0" gradientUnits="userSpaceOnUse" gradientTransform="matrix(93.0155 37.68272 37.68272 -93.0155 466.563 668.51)" spreadMethod="pad" id="b">       <stop style="stop-opacity:1;stop-color:#017bce" offset="0"/>       <stop style="stop-opacity:1;stop-color:#019e8f" offset="1"/>     </linearGradient>     <linearGradient x1="0" y1="0" x2="1" y2="0" gradientUnits="userSpaceOnUse" gradientTransform="scale(118.06824 -118.06824)rotate(-73.48 -.814 -4.806)" spreadMethod="pad" id="c">       <stop style="stop-opacity:1;stop-color:#e51cd8" offset="0"/>       <stop style="stop-opacity:1;stop-color:#635be8" offset="1"/>     </linearGradient>     <linearGradient x1="0" y1="0" x2="1" y2="0" gradientUnits="userSpaceOnUse" gradientTransform="scale(141.93391 -141.93391)rotate(45 7.366 2.315)" spreadMethod="pad" id="d">       <stop style="stop-opacity:1;stop-color:#bd1cc2" offset="0"/>       <stop style="stop-opacity:1;stop-color:#f5561c" offset="1"/>     </linearGradient>     <clipPath clipPathUnits="userSpaceOnUse" id="a">       <path d="M0 1080h1080V0H0Z"/>     </clipPath>   </defs>   <path d="M469.726 709.691a5.693 5.693 0 0 1-5.693-5.694v-57.941c0-2.876 2.142-5.335 5.001-5.654 37.658-4.197 70.071 13.319 94.847 62.466 1.575 3.125-.686 6.823-4.186 6.823z" style="fill:url(#b);stroke:none" transform="matrix(1.33333 0 0 -1.33333 0 1440)"/>   <path d="M464.033 625.326V522.027a4.35 4.35 0 0 1 4.35-4.35h58.461a4.34 4.34 0 0 1 4.336 3.996c1.584 19.948 4.729 107.801-62.734 108.006h-.013c-2.42 0-4.4-1.93-4.4-4.353" style="fill:url(#c);stroke:none" transform="matrix(1.33333 0 0 -1.33333 0 1440)"/>   <path d="M583.071 691.638c-23.798-16.042-40.353-35.165-47.644-58.231-2.918-9.229-3.747-18.996-2.681-28.616 3.512-31.663 12.802-60.304 28.437-85.626a3.15 3.15 0 0 1 2.681-1.488h48.954c2.525 0 4.024 2.828 2.597 4.911-15.891 23.19-36.315 50.348-39.915 61.366-.684 2.099.459 4.33 2.518 5.129 31.727 12.327 50.603 69.061 13.608 101.974a7 7 0 0 1-4.659 1.77 6.96 6.96 0 0 1-3.896-1.189" style="fill:url(#d);stroke:none" transform="matrix(1.33333 0 0 -1.33333 0 1440)"/> </svg>