<svg version="1.1" id="svg2" sodipodi:docname="revolo hr logo v3 variations font outlined.ai" xmlns:inkscape="http://www.inkscape.org/namespaces/inkscape" xmlns:sodipodi="http://sodipodi.sourceforge.net/DTD/sodipodi-0.dtd" xmlns="http://www.w3.org/2000/svg" xmlns:svg="http://www.w3.org/2000/svg" viewBox="427.62 493.73 592.18 418.67">
  <defs id="defs6">
    <clipPath clipPathUnits="userSpaceOnUse" id="clipPath16">
      <path d="M 0,1080 H 1080 V 0 H 0 Z" id="path14"/>
    </clipPath>
    <linearGradient x1="0" y1="0" x2="1" y2="0" gradientUnits="userSpaceOnUse" gradientTransform="matrix(93.015465,37.682812,37.682812,-93.015465,466.5618,668.50336)" spreadMethod="pad" id="linearGradient66">
      <stop style="stop-opacity:1;stop-color:#017bce" offset="0" id="stop62"/>
      <stop style="stop-opacity:1;stop-color:#019e8f" offset="1" id="stop64"/>
    </linearGradient>
    <linearGradient x1="0" y1="0" x2="1" y2="0" gradientUnits="userSpaceOnUse" gradientTransform="matrix(33.572872,113.1944,113.1944,-33.572872,475.22269,498.18076)" spreadMethod="pad" id="linearGradient86">
      <stop style="stop-opacity:1;stop-color:#e51cd8" offset="0" id="stop82"/>
      <stop style="stop-opacity:1;stop-color:#635be8" offset="1" id="stop84"/>
    </linearGradient>
    <linearGradient x1="0" y1="0" x2="1" y2="0" gradientUnits="userSpaceOnUse" gradientTransform="matrix(100.36243,-100.36243,-100.36243,-100.36243,538.53088,643.005)" spreadMethod="pad" id="linearGradient106">
      <stop style="stop-opacity:1;stop-color:#bd1cc2" offset="0" id="stop102"/>
      <stop style="stop-opacity:1;stop-color:#f5561c" offset="1" id="stop104"/>
    </linearGradient>
  </defs>
  <sodipodi:namedview id="namedview4" pagecolor="#ffffff" bordercolor="#000000" borderopacity="0.25" inkscape:showpageshadow="2" inkscape:pageopacity="0.0" inkscape:pagecheckerboard="0" inkscape:deskcolor="#d1d1d1"/>
  <g id="g8" inkscape:groupmode="layer" inkscape:label="revolo hr logo v3 variations font outlined" transform="matrix(1.3333333,0,0,-1.3333333,0,1440)">
    <g id="g10">
      <g id="g12" clip-path="url(#clipPath16)">
        <g id="g18" transform="translate(365.5522,396.9893)">
          <path d="m 0,0 h -13.979 l -12.54,23.13 c -1.13,2.089 -1.102,4.123 0.085,6.1 1.186,1.977 2.965,2.965 5.337,2.965 1.807,0 3.347,0.65 4.618,1.95 1.271,1.298 1.906,2.823 1.906,4.575 0,1.806 -0.635,3.359 -1.906,4.66 -1.271,1.299 -2.811,1.948 -4.618,1.948 H -32.535 V 0 H -44.82 v 57.613 h 23.723 c 5.197,0 9.63,-1.836 13.303,-5.507 3.67,-3.672 5.506,-8.133 5.506,-13.386 0,-5.198 -1.836,-9.631 -5.506,-13.302 -1.301,-1.3 -2.712,-2.373 -4.237,-3.22 z" style="fill:#000000;fill-opacity:1;fill-rule:nonzero;stroke:none" id="path20"/>
        </g>
        <g id="g22" transform="translate(385.2935,409.2744)">
          <path d="M 0,0 H 24.147 V -12.285 H -12.285 V 45.328 H 22.453 V 33.043 H 0 V 23.978 H 20.758 V 11.692 L 0,11.692 Z" style="fill:#000000;fill-opacity:1;fill-rule:nonzero;stroke:none" id="path24"/>
        </g>
        <g id="g26" transform="translate(452.2271,454.6025)">
          <path d="M 0,0 H 13.047 L -7.372,-54.902 c -0.452,-1.244 -1.2,-2.217 -2.245,-2.923 -1.046,-0.705 -2.217,-1.059 -3.516,-1.059 -1.3,0 -2.486,0.354 -3.558,1.059 -1.074,0.706 -1.809,1.679 -2.203,2.923 L -39.397,0 h 13.047 l 13.217,-36.008 z" style="fill:#000000;fill-opacity:1;fill-rule:nonzero;stroke:none" id="path28"/>
        </g>
        <g id="g30" transform="translate(483.6177,413.2139)">
          <path d="m 0,0 c 3.474,-3.474 7.667,-5.21 12.582,-5.21 4.914,0 9.107,1.736 12.582,5.21 3.473,3.474 5.21,7.668 5.21,12.582 0,4.914 -1.737,9.108 -5.21,12.582 -3.475,3.474 -7.668,5.211 -12.582,5.211 C 7.667,30.375 3.474,28.638 0,25.164 -3.474,21.69 -5.211,17.496 -5.211,12.582 -5.211,7.668 -3.474,3.474 0,0 m 33.848,33.849 c 2.711,-2.712 4.857,-5.904 6.439,-9.575 1.581,-3.672 2.372,-7.57 2.372,-11.692 0,-4.124 -0.791,-8.021 -2.372,-11.692 -1.582,-3.672 -3.728,-6.863 -6.439,-9.574 -2.711,-2.712 -5.903,-4.859 -9.574,-6.439 -3.672,-1.581 -7.57,-2.372 -11.692,-2.372 -4.124,0 -8.021,0.791 -11.692,2.372 -3.616,1.525 -6.808,3.671 -9.575,6.439 -2.711,2.711 -4.858,5.902 -6.439,9.574 -1.582,3.671 -2.372,7.568 -2.372,11.692 0,4.122 0.79,8.02 2.372,11.692 1.581,3.671 3.728,6.863 6.439,9.575 2.767,2.766 5.959,4.914 9.575,6.438 3.671,1.581 7.568,2.373 11.692,2.373 4.122,0 8.02,-0.792 11.692,-2.373 3.671,-1.582 6.863,-3.727 9.574,-6.438" style="fill:#000000;fill-opacity:1;fill-rule:nonzero;stroke:none" id="path32"/>
        </g>
        <g id="g34" transform="translate(547.459,409.2744)">
          <path d="M 0,0 H 22.452 V -12.285 H -12.286 V 45.328 H 0 Z" style="fill:#000000;fill-opacity:1;fill-rule:nonzero;stroke:none" id="path36"/>
        </g>
        <g id="g38" transform="translate(589.1016,413.2139)">
          <path d="m 0,0 c 3.474,-3.474 7.668,-5.21 12.582,-5.21 4.914,0 9.107,1.736 12.582,5.21 3.473,3.474 5.21,7.668 5.21,12.582 0,4.914 -1.737,9.108 -5.21,12.582 -3.475,3.474 -7.668,5.211 -12.582,5.211 C 7.668,30.375 3.474,28.638 0,25.164 -3.475,21.69 -5.211,17.496 -5.211,12.582 -5.211,7.668 -3.475,3.474 0,0 m 33.848,33.849 c 2.711,-2.712 4.857,-5.904 6.439,-9.575 1.58,-3.672 2.372,-7.57 2.372,-11.692 0,-4.124 -0.792,-8.021 -2.372,-11.692 -1.582,-3.672 -3.728,-6.863 -6.439,-9.574 -2.711,-2.712 -5.903,-4.859 -9.575,-6.439 -3.671,-1.581 -7.569,-2.372 -11.691,-2.372 -4.124,0 -8.021,0.791 -11.692,2.372 -3.617,1.525 -6.808,3.671 -9.575,6.439 -2.711,2.711 -4.858,5.902 -6.438,9.574 -1.582,3.671 -2.373,7.568 -2.373,11.692 0,4.122 0.791,8.02 2.373,11.692 1.58,3.671 3.727,6.863 6.438,9.575 2.767,2.766 5.958,4.914 9.575,6.438 3.671,1.581 7.568,2.373 11.692,2.373 4.122,0 8.02,-0.792 11.691,-2.373 3.672,-1.582 6.864,-3.727 9.575,-6.438" style="fill:#000000;fill-opacity:1;fill-rule:nonzero;stroke:none" id="path40"/>
        </g>
        <g id="g42" transform="translate(707.5537,396.9893)">
          <path d="M 0,0 H -6.854 V 26.681 H -37.123 V 0 h -6.854 v 58.501 h 6.854 V 32.84 H -6.854 V 58.501 H 0 Z" style="fill:#231f20;fill-opacity:1;fill-rule:nonzero;stroke:none" id="path44"/>
        </g>
        <g id="g46" transform="translate(729.7471,449.2891)">
          <path d="m 0,0 v -21.214 h 9.301 c 1.714,0 3.298,0.259 4.753,0.776 1.455,0.516 2.713,1.257 3.773,2.223 1.061,0.965 1.89,2.148 2.488,3.549 0.599,1.4 0.898,2.971 0.898,4.712 0,3.127 -1.013,5.568 -3.039,7.322 C 16.147,-0.877 13.218,0 9.383,0 Z m 35.084,-52.3 h -8.159 l -9.791,16.4 c -0.898,1.523 -1.769,2.821 -2.612,3.896 -0.842,1.074 -1.707,1.951 -2.589,2.631 -0.885,0.68 -1.836,1.177 -2.856,1.489 -1.02,0.313 -2.17,0.469 -3.447,0.469 H 0 V -52.3 H -6.854 V 6.201 h 17.46 c 2.557,0 4.916,-0.32 7.079,-0.959 2.162,-0.639 4.039,-1.611 5.629,-2.917 1.591,-1.305 2.835,-2.93 3.733,-4.875 0.897,-1.944 1.347,-4.222 1.347,-6.833 0,-2.04 -0.307,-3.91 -0.918,-5.609 -0.613,-1.7 -1.483,-3.217 -2.612,-4.549 -1.129,-1.333 -2.488,-2.468 -4.079,-3.406 -1.591,-0.939 -3.38,-1.666 -5.365,-2.183 v -0.163 c 0.979,-0.436 1.829,-0.933 2.55,-1.489 0.72,-0.558 1.408,-1.218 2.06,-1.979 0.653,-0.761 1.299,-1.626 1.938,-2.591 0.638,-0.965 1.352,-2.086 2.141,-3.365 z" style="fill:#231f20;fill-opacity:1;fill-rule:nonzero;stroke:none" id="path48"/>
        </g>
      </g>
    </g>
    <g id="g50">
      <g id="g52">
        <g id="g58">
          <g id="g60">
            <path d="m 469.726,709.691 c -3.144,0 -5.693,-2.549 -5.693,-5.694 v 0 -57.941 c 0,-2.876 2.142,-5.335 5.001,-5.654 v 0 c 37.658,-4.197 70.071,13.319 94.847,62.466 v 0 c 1.575,3.125 -0.686,6.823 -4.186,6.823 v 0 z" style="fill:url(#linearGradient66);stroke:none" id="path68"/>
          </g>
        </g>
      </g>
    </g>
    <g id="g70">
      <g id="g72">
        <g id="g78">
          <g id="g80">
            <path d="M 464.033,625.326 V 522.027 c 0,-2.402 1.947,-4.35 4.35,-4.35 v 0 h 58.461 c 2.268,0 4.157,1.735 4.336,3.996 v 0 c 1.584,19.948 4.729,107.801 -62.734,108.006 v 0 c -0.004,0 -0.009,0 -0.013,0 v 0 c -2.42,0 -4.4,-1.93 -4.4,-4.353" style="fill:url(#linearGradient86);stroke:none" id="path88"/>
          </g>
        </g>
      </g>
    </g>
    <g id="g90">
      <g id="g92">
        <g id="g98">
          <g id="g100">
            <path d="m 583.071,691.638 c -23.798,-16.042 -40.353,-35.165 -47.644,-58.231 v 0 c -2.918,-9.229 -3.747,-18.996 -2.681,-28.616 v 0 c 3.512,-31.663 12.802,-60.304 28.437,-85.626 v 0 c 0.573,-0.927 1.591,-1.488 2.681,-1.488 v 0 h 48.954 c 2.525,0 4.024,2.828 2.597,4.911 v 0 c -15.891,23.19 -36.315,50.348 -39.915,61.366 v 0 c -0.684,2.099 0.459,4.33 2.518,5.129 v 0 c 31.727,12.327 50.603,69.061 13.608,101.974 v 0 c -1.317,1.171 -2.984,1.77 -4.659,1.77 v 0 c -1.354,0 -2.713,-0.392 -3.896,-1.189" style="fill:url(#linearGradient106);stroke:none" id="path108"/>
          </g>
        </g>
      </g>
    </g>
  </g>
</svg>