<svg version="1.0" xmlns="http://www.w3.org/2000/svg" viewBox="70 100 200 50" color-interpolation-filters="sRGB" style="margin:auto">
  <g fill="#333" class="iconlinesvg-g iconlinesvg">
    <g class="tp-name">
      <g transform="translate(74.752 104.462)" class="imagesvg">
        <path class="image-rect" fill="none" d="M0 0h50.108v41.076H0z"/>
        <svg width="50.108" height="41.076" class="image-svg-svg primary" style="overflow:visible">
          <svg xmlns="http://www.w3.org/2000/svg" viewBox="0 0 121.99 100">
            <path d="m41.71 30.89 14.31 23.56L28.27 100H0z"/>
            <path fill="#e42b37" d="M61.78 60.73 39.79 100h44.15z"/>
            <path d="M46.6 23.21 93.54 100h28.45L60.38 0z"/>
          </svg>
        </svg>
      </g>
      <path d="M128.752 117.759v24.16h2.4v-14.08c0-4.4 3.47-8.02 7.97-8.07 1.41 0 2.83.34 4.1 1.12l1.08-1.95c-1.61-.98-3.37-1.47-5.18-1.42-3.08 0-6.51 1.27-8.02 4.55l-.1-4.31Zm24.137-7.04v7.04h-5.14v2.01h5.14v14.72c0 4.74 1.66 7.77 6.8 7.77 1.51 0 3.03-.49 4.54-1.22l-.83-1.96c-1.22.59-2.54.98-3.71.98-3.77 0-4.45-2.3-4.45-5.57v-14.72h8.21v-2.01h-8.21v-7.28Zm27.133 31.54c3.87 0 8.07-1.56 10.42-4.64l-1.71-1.37c-1.81 2.39-5.53 3.67-8.71 3.67-4.98 0-9.34-3.28-9.82-8.95h21.76c.92-9.44-5.14-13.6-11.94-13.6-6.79 0-12.27 5.23-12.27 12.47 0 7.68 5.48 12.42 12.27 12.42m-9.82-13.4c.53-5.91 4.84-9.29 9.82-9.29 5.82 0 9.74 3.33 9.78 9.29Zm63.74 13.06v-14.47c0-6.02-4.21-10.18-10.12-10.18-3.72 0-7.48 2.01-8.95 5.97-1.42-4.3-5.28-5.97-8.95-5.97-3.13 0-6.21 1.32-7.87 4.5l-.05-4.01h-2.25v24.16h2.4v-14.33c0-4.64 3.13-8.02 7.72-8.02 4.6 0 7.78 3.38 7.78 8.02v14.33h2.39v-14.33c0-4.64 3.18-8.07 7.78-8.07 4.59 0 7.72 3.28 7.72 7.93v14.47Zm6.895-24.25v24.25h-2.4v-24.25Zm-3.09-7.78c0 2.54 3.87 2.54 3.87 0s-3.87-2.54-3.87 0m26.464 10.71c-2.39-2.25-5.47-3.23-8.99-3.23-4.89-.05-9.64 2.01-9.59 6.75.05 4.84 4.7 5.72 9.39 6.5 3.96.64 7.97 1.32 7.87 4.8-.14 3.81-4.59 4.59-7.53 4.59-3.22 0-6.84-1.22-8.85-4.1l-1.76 1.56c2.1 3.23 6.31 4.84 10.56 4.84 4.26 0 9.78-1.42 9.93-6.75.24-5.62-5.67-6.35-9.98-7.09-3.03-.54-7.23-1.17-7.33-4.4-.1-3.08 3.52-4.5 7.29-4.45 2.69 0 5.08.39 7.53 2.54Z" data-gra="path-name"/>
    </g>
  </g>
</svg>
