<?xml version="1.0" encoding="UTF-8"?>
<svg id="Layer_1" data-name="Layer 1" xmlns="http://www.w3.org/2000/svg" xmlns:xlink="http://www.w3.org/1999/xlink" viewBox="0 0 990.26 137.58">
  <defs>
    <style>
      .cls-1 {
        fill: url(#linear-gradient);
      }

      .cls-1, .cls-2, .cls-3, .cls-4, .cls-5 {
        stroke-width: 0px;
      }

      .cls-3 {
        fill: url(#linear-gradient-2);
      }

      .cls-4 {
        fill: url(#linear-gradient-3);
      }

      .cls-5 {
        fill: #231f20;
      }
    </style>
    <linearGradient id="linear-gradient" x1="6.32" y1="35.39" x2="67.65" y2="10.54" gradientUnits="userSpaceOnUse">
      <stop offset="0" stop-color="#017bce"/>
      <stop offset="1" stop-color="#019e8f"/>
    </linearGradient>
    <linearGradient id="linear-gradient-2" x1="12.03" y1="147.69" x2="34.17" y2="73.06" gradientUnits="userSpaceOnUse">
      <stop offset="0" stop-color="#e51cd8"/>
      <stop offset="1" stop-color="#635be8"/>
    </linearGradient>
    <linearGradient id="linear-gradient-3" x1="53.77" y1="52.2" x2="119.95" y2="118.37" gradientUnits="userSpaceOnUse">
      <stop offset="0" stop-color="#bd1cc2"/>
      <stop offset="1" stop-color="#f5561c"/>
    </linearGradient>
  </defs>
  <g>
    <path class="cls-2" d="m157.77,107.28h52.76v26.84h-79.61V8.23h75.9v26.84h-49.06v19.81h45.36v26.84h-45.36v25.55Z"/>
    <path class="cls-2" d="m304.03,8.23h28.51l-44.62,119.97c-.99,2.72-2.62,4.84-4.91,6.39-2.29,1.54-4.84,2.31-7.68,2.31s-5.43-.77-7.78-2.31c-2.35-1.54-3.95-3.67-4.81-6.39L217.94,8.23h28.51l28.88,78.68,28.7-78.68Z"/>
    <path class="cls-2" d="m446.58,24.71c5.92,5.93,10.61,12.9,14.07,20.92,3.45,8.03,5.18,16.54,5.18,25.55s-1.73,17.53-5.18,25.55c-3.46,8.02-8.15,14.99-14.07,20.92-5.92,5.93-12.9,10.62-20.92,14.07-8.02,3.45-16.54,5.18-25.55,5.18s-17.53-1.73-25.55-5.18c-7.9-3.33-14.88-8.02-20.92-14.07-5.92-5.92-10.62-12.89-14.07-20.92-3.46-8.02-5.18-16.54-5.18-25.55s1.73-17.52,5.18-25.55c3.45-8.02,8.14-14.99,14.07-20.92,6.05-6.05,13.02-10.74,20.92-14.07,8.02-3.45,16.54-5.19,25.55-5.19s17.52,1.73,25.55,5.19c8.02,3.46,15,8.14,20.92,14.07Zm-73.96,73.96c7.59,7.59,16.75,11.38,27.49,11.38s19.9-3.79,27.49-11.38c7.59-7.59,11.39-16.75,11.39-27.49s-3.8-19.9-11.39-27.49c-7.59-7.59-16.75-11.39-27.49-11.39s-19.9,3.8-27.49,11.39c-7.59,7.59-11.39,16.75-11.39,27.49s3.8,19.9,11.39,27.49Z"/>
    <path class="cls-2" d="m512.11,107.28h49.06v26.84h-75.9V8.23h26.84v99.04Z"/>
    <path class="cls-2" d="m677.06,24.71c5.92,5.93,10.61,12.9,14.07,20.92,3.45,8.03,5.18,16.54,5.18,25.55s-1.73,17.53-5.18,25.55c-3.46,8.02-8.15,14.99-14.07,20.92-5.92,5.93-12.9,10.62-20.92,14.07-8.02,3.45-16.54,5.18-25.55,5.18s-17.53-1.73-25.55-5.18c-7.9-3.33-14.88-8.02-20.92-14.07-5.93-5.92-10.62-12.89-14.07-20.92-3.46-8.02-5.19-16.54-5.19-25.55s1.73-17.52,5.19-25.55c3.45-8.02,8.14-14.99,14.07-20.92s13.02-10.74,20.92-14.07c8.02-3.45,16.54-5.19,25.55-5.19s17.52,1.73,25.55,5.19c8.02,3.46,15,8.14,20.92,14.07Zm-73.96,73.96c7.59,7.59,16.75,11.38,27.49,11.38s19.9-3.79,27.49-11.38c7.59-7.59,11.38-16.75,11.38-27.49s-3.8-19.9-11.38-27.49c-7.59-7.59-16.75-11.39-27.49-11.39s-19.9,3.8-27.49,11.39c-7.59,7.59-11.39,16.75-11.39,27.49s3.79,19.9,11.39,27.49Z"/>
    <path class="cls-5" d="m861.93,134.12h-14.98v-58.3h-66.14v58.3h-14.98V6.29h14.98v56.07h66.14V6.29h14.98v127.83Z"/>
    <path class="cls-5" d="m987.08,134.12h-17.83l-21.39-35.83c-1.96-3.33-3.86-6.16-5.71-8.51-1.84-2.35-3.73-4.26-5.66-5.75-1.93-1.49-4.01-2.57-6.24-3.25-2.23-.68-4.74-1.02-7.53-1.02h-12.3v54.37h-14.98V6.29h38.15c5.59,0,10.74.7,15.47,2.1,4.72,1.4,8.83,3.52,12.3,6.37s6.19,6.4,8.16,10.65,2.94,9.23,2.94,14.93c0,4.46-.67,8.54-2.01,12.26-1.34,3.72-3.24,7.03-5.71,9.94-2.47,2.91-5.44,5.39-8.91,7.44-3.48,2.05-7.39,3.64-11.72,4.77v.36c2.14.95,4,2.04,5.57,3.25,1.57,1.22,3.08,2.66,4.5,4.32,1.43,1.66,2.84,3.55,4.23,5.66,1.4,2.11,2.96,4.56,4.68,7.35l23.98,38.42Zm-76.66-114.28v46.35h20.32c3.74,0,7.21-.57,10.39-1.69s5.93-2.75,8.25-4.86c2.32-2.11,4.13-4.69,5.44-7.75,1.31-3.06,1.96-6.49,1.96-10.3,0-6.83-2.21-12.17-6.64-16-4.43-3.83-10.83-5.75-19.21-5.75h-20.5Z"/>
  </g>
  <g>
    <path class="cls-1" d="m4.65,50.19V11.99c0-2.07,1.68-3.75,3.75-3.75h59.32c2.31,0,3.8,2.44,2.76,4.5C54.15,45.13,32.78,56.68,7.95,53.92c-1.89-.21-3.3-1.83-3.3-3.73Z"/>
    <path class="cls-3" d="m4.65,63.86v68.11c0,1.58,1.28,2.87,2.87,2.87h38.55c1.5,0,2.74-1.14,2.86-2.63,1.04-13.15,3.12-71.08-41.36-71.21-1.6,0-2.91,1.27-2.91,2.87Z"/>
    <path class="cls-4" d="m83.14,20.13c-15.69,10.58-26.61,23.19-31.41,38.39-1.92,6.09-2.47,12.52-1.77,18.87,2.32,20.88,8.44,39.76,18.75,56.46.38.61,1.05.98,1.77.98h32.28c1.66,0,2.65-1.86,1.71-3.24-10.48-15.29-23.94-33.2-26.32-40.46-.45-1.38.3-2.85,1.66-3.38,20.92-8.13,33.37-45.53,8.97-67.24-1.57-1.4-3.9-1.56-5.64-.38Z"/>
  </g>
</svg>