<?xml version="1.0" encoding="UTF-8"?>
<svg id="Layer_1" data-name="Layer 1" xmlns="http://www.w3.org/2000/svg" viewBox="0 0 1080 237.13">
  <defs>
    <style>
      .cls-1 {
        font-family: AfacadFlux-Bold, 'Afacad Flux';
        font-weight: 700;
      }

      .cls-2, .cls-3 {
        fill: #f15a29;
      }

      .cls-2, .cls-4 {
        stroke-width: 0px;
      }

      .cls-5 {
        font-size: 106.88px;
      }

      .cls-5, .cls-4 {
        fill: #020f51;
      }

      .cls-3 {
        font-size: 89.39px;
      }
    </style>
  </defs>
  <text class="cls-1" transform="translate(349.24 119.11)"><tspan class="cls-5"><tspan x="0" y="0">ST BRENDANS</tspan></tspan><tspan class="cls-3"><tspan x="0" y="107.27">RESIDENTIAL HOME</tspan></tspan></text>
  <g>
    <path class="cls-4" d="m77.22,108.32c0,1.59,0,2.81,0,4.03,0,29.15,0,58.3,0,87.46,0,4.01,0,4.04,3.9,4.04,43.5,0,86.99-.01,130.49.06,2.88,0,3.78-.84,3.77-3.77-.1-28.96-.06-57.92-.05-86.88,0-1.14,0-2.28,0-3.83.89.51,1.49.74,1.96,1.13,7.54,6.13,15.11,12.22,22.53,18.49,1.06.89,1.9,2.69,1.9,4.07.11,29.73.1,59.46.08,89.19,0,5.2-2.84,8.07-8.03,8.07-58.31.02-116.63.02-174.94,0-5.24,0-8.06-2.8-8.06-8.01-.03-30.21-.03-60.42.03-90.63,0-1.11.42-2.62,1.2-3.27,7.88-6.61,15.88-13.09,23.86-19.59.21-.17.52-.22,1.38-.57Z"/>
    <path class="cls-2" d="m146.91,8.83c3.5-.06,6.24,1.62,8.83,3.74,24.07,19.64,48.16,39.26,72.24,58.9,13.72,11.18,27.31,22.52,41.18,33.51,6.5,5.15,6.89,13.25,2.63,18.3-5.16,6.13-12.48,6.5-19.11,1.09-32.28-26.32-64.57-52.63-96.88-78.91-6.34-5.16-12.24-4.98-18.5.13-23.55,19.22-47.13,38.4-70.69,57.6-8.87,7.23-17.75,14.45-26.61,21.69-3.87,3.16-8.2,4.37-12.91,2.47-4.68-1.89-7.72-5.39-8.33-10.55-.58-4.93,1.54-8.7,5.33-11.77,13.6-11.02,27.16-22.1,40.73-33.16,24.39-19.86,48.78-39.72,73.15-59.6,2.63-2.15,5.51-3.49,8.95-3.43Z"/>
  </g>
</svg>