<?xml version="1.0" encoding="UTF-8"?>
<svg id="Layer_1" data-name="Layer 1" xmlns="http://www.w3.org/2000/svg" viewBox="0 0 1080 353.74">
  <defs>
    <style>
      .cls-1 {
        stroke-width: 0px;
      }

      .cls-1, .cls-2 {
        fill: #fff;
      }

      .cls-2 {
        font-family: AfacadFlux-ExtraBold, 'Afacad Flux';
        font-size: 49.05px;
        font-weight: 700;
      }
    </style>
  </defs>
  <g>
    <path class="cls-1" d="m239.3,142.28c0,3.13,1.87,4.99,4.99,4.99,2.21,0,4.23-.94,6.02-2.79,1.78-1.84,2.68-3.88,2.68-6.06,0-3.03-1.81-4.84-4.84-4.84-2.14,0-4.17.93-6.03,2.76-1.87,1.84-2.82,3.84-2.82,5.94Z"/>
    <path class="cls-1" d="m609.19,115.55c-1.45,0-2.96-.23-4.47-.69l-1.18-.36-23.84,39.92c-.8-2.34-2.86-3.64-5.9-3.64-5.06,0-11.69,2.74-20.26,8.36-6.09,3.98-10.48,8.29-13.16,12.88-3.86,5.45-7.69,10.16-11.42,14.04-5.61,5.83-7.86,6.46-8.57,6.46-.65,0-1.38,0-1.38-1.98,0-1.22.88-4.75,6.74-14.56l15.18-25.13-3.38.55c-2.08.34-3.78.51-5.05.51-1.04,0-2.27-.16-3.66-.49l-1.19-.28-1.44,2.74c-.92-2-2.88-3.11-5.69-3.11-4,0-9.01,1.7-15.3,5.19-8.43,4.6-14.37,9.71-17.81,15.25-10.68,14.03-19.73,21.16-26.88,21.16-3.84,0-5.47-1.48-5.47-4.93,0-3.04,1.52-6.94,4.53-11.61,11.02-2.24,18.74-4.59,23.58-7.19,5.28-2.83,7.96-6.43,7.96-10.67,0-2.04-.84-3.79-2.49-5.19-1.58-1.33-3.49-2-5.68-2-4.5,0-10.08,1.85-17.05,5.65-8.64,4.72-14.47,10.02-17.46,15.84l-1.29,1.79c-11.47,16.06-16.38,18.46-18.29,18.46-1.3,0-1.68-.38-1.68-1.68,0-.7.7-3.35,7.15-12.9,4.67-6.9,6.94-12.12,6.94-15.96,0-3.04-.9-5.67-2.67-7.82-1.85-2.24-4.13-3.38-6.79-3.38-2.93,0-6.24,1.64-9.98,4.95l.57-.95c10.4-16.82,18.23-29.44,23.49-37.88l2.15-3.45-3.91,1.09c-1.67.46-3.47.7-5.34.7-.95,0-2.15-.14-3.55-.42l-1.1-.22-12.09,20.52c-8.55,14.59-13.72,23.35-15.4,26.09-2.03,3.64-3.73,6.72-5.1,9.23-13.33,19.17-18.93,22.09-21.1,22.09-1.2,0-1.53-.33-1.53-1.53,0-.75.67-3.48,6.86-12.76,4.87-7.3,7.24-12.67,7.24-16.41,0-3.04-.89-5.65-2.64-7.76-1.82-2.19-4.12-3.3-6.82-3.3-3.13,0-6.49,1.67-9.99,4.98-1.55,1.47-3.38,3.48-5.51,6.06.07-.52.1-1.02.1-1.5,0-2.52-.72-4.73-2.15-6.58-1.52-1.96-3.43-2.96-5.65-2.96s-6.19,1.84-16.89,16.19l-1.05,1.39c-.5.37-.92.86-1.23,1.28-11.21,15.09-20.66,22.74-28.08,22.74-3.84,0-5.47-1.48-5.47-4.93,0-3.04,1.52-6.94,4.53-11.61,11.02-2.24,18.74-4.59,23.58-7.19,5.28-2.83,7.96-6.43,7.96-10.67,0-2.05-.84-3.79-2.49-5.19-1.57-1.33-3.49-2-5.68-2-4.5,0-10.08,1.85-17.05,5.65-9.03,4.93-15.01,10.5-17.87,16.64-12.02,16.82-17.29,19.46-19.4,19.46-.9,0-1.53-.13-1.53-1.83,0-1.08.95-4.52,7.28-15.33,4.91-8.32,16.96-27.74,35.82-57.7l1.67-2.65-3.12.23c-3.62.27-4.41.3-4.58.3-1.45,0-2.96-.23-4.47-.69l-1.18-.36-23.83,39.92c-.8-2.34-2.86-3.64-5.9-3.64-5.06,0-11.69,2.74-20.26,8.36-6.12,4-10.53,8.34-13.2,12.96-12.83,17.68-18.23,20.43-20.33,20.43-1.68,0-1.98-.62-1.98-1.83,0-1.32.6-3.89,3.48-8.65l18.94-31.12-3.32.47c-2.39.34-4.25.52-5.53.52-.79,0-1.92-.17-3.36-.49l-1.13-.26-10.09,17.15c-.25.23-.5.5-.71.85-4.53,6.67-9.04,12.36-13.41,16.91-5.61,5.83-7.86,6.46-8.57,6.46-.65,0-1.38,0-1.38-1.98,0-1.22.88-4.74,6.74-14.56l15.18-25.13-3.38.55c-2.08.34-3.78.51-5.05.51-1.04,0-2.27-.16-3.66-.49l-1.19-.28-1.44,2.74c-.92-2-2.88-3.11-5.69-3.11-4,0-9.01,1.7-15.3,5.19-8.86,4.84-14.98,10.22-18.33,16.08-6.71,8.71-12.06,14.5-15.92,17.23-4.38,3.1-10.36,4.68-17.76,4.68-1.15,0-2.55-.08-4.21-.24,7.51-3.51,14.05-8.51,19.47-14.92,6.65-7.84,14.28-20.86,22.69-38.69,5.68-12.07,10.79-21.13,15.19-26.92,4.33-5.7,9.4-10.11,15.06-13.12,1.96-1.02,2.9-1.7,2.9-2.84,0-.41-.1-.78-.29-1.1,2.11-.36,4.21-.54,6.29-.54,7.29,0,13.55,2.23,18.58,6.62,5.04,4.4,7.49,9.6,7.49,15.89,0,2.75-.34,4.94-1.01,6.5l-.23.85-.05.38c0,.99.73,2,2.11,2,1.79,0,2.42-2.06,2.87-3.98.45-1.95.69-4,.69-6.07,0-8.05-2.94-14.79-8.74-20.02-5.75-5.19-13.16-7.82-22-7.82-9.97,0-19.98,3.33-29.75,9.9-6.18,4.19-11.89,9.1-16.98,14.6-5.05,5.45-11.93,14.16-20.45,25.88-11.99,16.47-20.38,27.5-24.92,32.8-2.4,2.8-4.94,5.4-7.6,7.79,2.09-2.73,4-5.73,5.74-8.99,5.03-9.61,10.45-25.12,16.12-46.11,3.7-13.98,7.87-23.58,12.37-28.52l.09-.11c.28-.37.47-.76.57-1.17l.05-.39c0-1.18-.89-2.04-2.11-2.04-1.83,0-5.18,1-13.11,9.6-3.45,3.74-6.71,7.78-9.75,12.06.34-.75.42-1.28.42-1.71,0-1.27-.92-2.19-2.19-2.19-.62,0-1.5.28-2.15,1.58-1.76,3.24-4.11,6.01-6.98,8.25-2.76,2.15-5.23,3.24-7.34,3.24-3.3,0-4.64-1.21-4.64-4.18,0-.77.26-2.24,1.51-4.84,3.37-6.9,5.01-11.96,5.01-15.47,0-4.8-1.59-8.64-4.74-11.41-3.09-2.73-7.35-4.11-12.68-4.11-12.37,0-23.91,4.78-34.29,14.2-10.42,9.46-15.71,20.03-15.71,31.4,0,6.06,1.89,11.07,5.6,14.89,3.73,3.84,8.6,5.78,14.48,5.78,8.15,0,15.81-3.17,22.74-9.42,4.73-4.21,5.38-5.86,5.38-7.02,0-1.33-.9-2.26-2.19-2.26-.91,0-1.48.71-1.75,1.05-2.73,3.88-6.37,7.1-10.81,9.57-4.42,2.46-8.81,3.7-13.07,3.7-4.71,0-8.44-1.49-11.42-4.56-2.99-3.08-4.44-6.97-4.44-11.89,0-9.75,4.82-19.12,14.34-27.86,9.55-8.77,19.87-13.22,30.68-13.22,3.61,0,6.53.71,8.69,2.1,1.96,1.27,2.91,2.86,2.91,4.89,0,1.24-.64,3.98-3.69,9.96-2.18,4.25-3.28,7.98-3.28,11.1,0,3.38,1.11,6.28,3.31,8.62,2.23,2.37,4.99,3.57,8.21,3.57,4.5,0,9.14-2.66,13.78-7.9.55-.62,1.05-1.2,1.48-1.72-.91,1.4-1.81,2.83-2.67,4.27-10.5,17.41-17.6,28.87-21.11,34.06-3.48,5.14-7.79,10.49-12.82,15.91-12.32,13.29-24.99,20.03-37.67,20.03-6.13,0-11.19-1.25-15.03-3.73-3.11-2-4.87-4.39-5.33-7.26.91.92,2.21,1.42,3.86,1.42,1.99,0,3.69-.78,5.07-2.3,1.33-1.48,2.01-3.28,2.01-5.34,0-4.09-2.37-6.43-6.51-6.43-2.75,0-5.07,1.09-6.89,3.25-1.76,2.08-2.65,4.65-2.65,7.65,0,5.19,2.47,9.47,7.33,12.72,4.66,3.12,10.73,4.7,18.04,4.7,11.1,0,22.27-3.97,33.21-11.81,6.61-4.71,12.4-10.27,17.2-16.5,4.76-6.18,10.36-15.37,16.63-27.32,5.88-11.24,11.35-20.5,16.36-27.73-3.32,6.44-6.44,14.05-9.33,22.8-7.02,21.17-11.94,34.75-14.63,40.38-2.8,5.95-6.62,10.75-11.34,14.27-1.62,1.21-1.67,1.26-1.78,1.38l-.45.46v.64c0,1.22.86,2.11,2.04,2.11,1.06,0,3.07-.41,9.28-3.59,10.06-5.19,23.04-18.24,38.57-38.81,10.39-13.81,17.45-22.97,21.02-27.23,3.67-4.47,8.11-9.13,13.19-13.87,7.06-6.6,14.06-11.39,20.94-14.35-.23.15-.48.31-.72.48-8.44,5.73-15.79,12.74-21.83,20.83-6.18,8.36-14.66,22.75-25.21,42.79-5.12,9.74-9.55,16.73-13.15,20.79-3.46,3.88-7.73,6.77-12.7,8.6h-.59c-3.39-.5-6.18-.76-8.3-.76-1.97,0-7.19,0-7.19,3.48,0,2.08,1.88,3.13,5.6,3.13s7.08-.56,10.49-1.66c4.73.9,9.21,1.35,13.31,1.35,6.92,0,12.87-1.43,17.67-4.24,3.77-2.21,7.96-5.99,12.5-11.23,0,.13-.02.26-.02.4,0,3.84,1.03,7.08,3.07,9.66,2.13,2.69,4.81,4.05,7.98,4.05,2.92,0,5.91-1.39,8.88-4.13,1.74-1.61,3.9-4.07,6.54-7.46-.02.28-.02.56-.02.84,0,3,.87,5.55,2.57,7.57,1.77,2.11,4.09,3.18,6.9,3.18,3.97,0,8.98-3.71,15.32-11.34.1-.12.2-.23.3-.35-.05.43-.08.85-.08,1.24,0,2.93.95,5.42,2.82,7.41,1.9,2.01,4.29,3.04,7.11,3.04,4.63,0,10.59-4.59,18.12-13.96,0,.08,0,.17,0,.25,0,3.84,1.03,7.08,3.07,9.66,2.13,2.69,4.81,4.05,7.98,4.05,3.91,0,8.9-3.86,15.44-12.02-.03.38-.04.76-.04,1.12,0,3.1.87,5.7,2.57,7.72,1.77,2.11,4.09,3.18,6.9,3.18,4.39,0,10.15-4.64,17.9-14.45.11,4,1.45,7.41,4.01,10.12,2.7,2.87,6.09,4.32,10.06,4.32,8.06,0,17.27-6.53,28.16-19.96l3.27-4.09c.29-.37.51-.66.71-.93.35-.31.65-.71.93-1.11,10.39-14.9,13.46-15.65,13.96-15.65.13,0,.21.01.22.01.03.05.1.24.1.68,0,1.33-1.28,5.6-9.83,19.23l-13.61,21.56,3.33-.43c1.49-.19,3.1-.29,4.8-.29.32,0,1.33.05,4.34.3l1.01.08.5-.89c18.66-33.27,28.09-40.26,32.72-40.26,1.43,0,1.68.47,1.68,1.52,0,.47-.42,2.65-5.86,10.7-4.02,5.88-6.45,9.73-7.43,11.76-1.03,2.15-1.56,4.51-1.56,7.01,0,2.96.91,5.5,2.7,7.56,1.85,2.12,4.18,3.19,6.92,3.19,2.93,0,6.45-2.03,10.66-6.17l-3.48,6.29,3.21-.52c1.77-.29,3.19-.43,4.22-.43.95,0,2.15.14,3.55.42l1.13.23.56-1.01c8.74-15.73,15.68-26.55,20.64-32.15,6.12-6.95,9.49-8.4,11.24-8.4,1.37,0,1.53.44,1.53,1.37-.02.5-.7,3.05-8.75,14.88-4.06,6.03-6.03,10.85-6.03,14.75,0,3.01.91,5.57,2.71,7.6,1.85,2.09,4.25,3.15,7.14,3.15,4.48,0,10.27-4.63,17.98-14.43.12,3.99,1.46,7.39,4.01,10.1,2.7,2.87,6.09,4.32,10.06,4.32,6.95,0,14.76-4.87,23.76-14.83-.02.37-.05.75-.05,1.12,0,3.83,1.03,7.08,3.07,9.66,2.13,2.69,4.81,4.05,7.98,4.05,2.92,0,5.91-1.39,8.88-4.13,1.74-1.61,3.9-4.07,6.54-7.46-.02.28-.02.56-.02.84,0,3,.86,5.55,2.57,7.57,1.77,2.11,4.09,3.18,6.9,3.18,3.97,0,8.98-3.71,15.32-11.34.79-.93,1.51-1.8,2.2-2.62,0,.08,0,.17,0,.25,0,3.84,1.03,7.08,3.07,9.66,2.13,2.69,4.81,4.05,7.98,4.05,3.91,0,8.9-3.86,15.44-12.02-.03.38-.05.76-.05,1.12,0,3.1.86,5.7,2.57,7.72,1.77,2.11,4.09,3.18,6.9,3.18,5.21,0,12.34-6.5,22.44-20.45l3.29-4.51c.68-.98.86-1.32.95-1.6l.08-.25v-.26c0-1.18-.86-2.04-2.04-2.04-1.27,0-1.96,1.15-2.14,1.44-13.98,20.33-19.87,23.37-22.14,23.37-.9,0-1.53-.13-1.53-1.83,0-1.08.95-4.52,7.28-15.33,4.91-8.31,16.96-27.72,35.81-57.7l1.67-2.65-3.12.23c-3.62.27-4.41.3-4.58.3Zm-60.54,76.98c-1.25,0-2.59-.27-2.59-3.5,0-5.16,3.64-12.2,10.82-20.93,8.84-10.76,14-13.02,16.77-13.02,1.38,0,2.13.39,2.13,2.43,0,1.67-1.32,5.57-7.59,14.62-12.45,17.74-17.59,20.39-19.54,20.39Zm-45.04-24.38c8.97-10.8,14.24-13.07,17.08-13.07,1.21,0,1.83.33,1.83,2.13,0,2.18-1.77,7.18-10.22,18.61-10.8,14.54-15.18,16.71-16.84,16.71s-2.81-.57-2.81-3.34c0-5.2,3.69-12.28,10.96-21.04Zm-26.76-4.03c-3.82,2.58-8.35,4.72-13.53,6.4,3.22-4.12,6.5-7.61,9.79-10.4,5.05-4.29,7.98-5.19,9.55-5.19,1.07,0,1.07.28,1.07.84,0,2.42-2.38,5.31-6.88,8.35Zm-147.45,0c-3.82,2.58-8.35,4.72-13.53,6.4,3.22-4.12,6.5-7.61,9.79-10.4,5.05-4.29,7.98-5.19,9.55-5.19,1.07,0,1.07.28,1.07.84,0,2.42-2.38,5.31-6.88,8.35Zm-73.22,28.41c-1.25,0-2.59-.27-2.59-3.5,0-5.16,3.64-12.2,10.82-20.93,8.84-10.76,14-13.02,16.77-13.02,1.38,0,2.13.39,2.13,2.43,0,1.67-1.32,5.57-7.59,14.62-12.44,17.74-17.59,20.39-19.54,20.39Zm-71.1-24.38c8.97-10.8,14.24-13.07,17.08-13.07,1.21,0,1.83.33,1.83,2.13,0,2.18-1.77,7.18-10.22,18.61-10.8,14.54-15.18,16.71-16.84,16.71s-2.81-.57-2.81-3.34c0-5.2,3.69-12.28,10.96-21.04Z"/>
    <path class="cls-1" d="m664.43,198.19c19.87,0,38.06-7.67,54.05-22.78,5.57-5.26,9.64-10.53,12.09-15.66,2.41-5.05,5.07-13.66,7.92-25.59,1.64-7.02,2.92-12.06,3.81-15,6.86-4.14,12.78-8.52,17.59-13.04,5.33-5,7.81-8.7,7.81-11.65s-1.92-4.54-5.14-4.54c-4.58,0-9.66,2.96-15.53,9.05-5.5,5.7-10.15,12.58-13.81,20.45-4.76,2.88-10.16,6.3-16.09,10.21.38-2.2.57-4.36.57-6.45,0-6.38-2.01-11.54-5.98-15.31-3.95-3.76-9.3-5.66-15.9-5.66-11.71,0-23.67,4.44-35.57,13.19-9.27,6.86-16.57,14.69-21.71,23.26-5.18,8.64-7.8,17.48-7.8,26.27,0,13.27,5.14,22.93,15.3,28.76-2.21,4.44-3.33,8.61-3.33,12.41,0,2.93.72,6.11,2.15,9.43,1.68,3.91,3.3,5.66,5.23,5.66,1.61,0,2.34-1.13,2.34-2.19,0-.79-.29-1.52-.84-2.11-2.67-3.37-3.97-6.95-3.97-10.95,0-2.86.92-6.26,2.75-10.12,4.15,1.57,8.88,2.37,14.08,2.37Zm98.12-103.8c.34,0,.49.05.52.04,0,.03.02.09.02.2,0,.75-.59,3.05-6.05,8.17-3.32,3.11-7.37,6.25-12.08,9.39,1.98-4.19,4.48-7.98,7.45-11.31,3.84-4.3,7.25-6.48,10.15-6.48Zm-123.06,76.01c0-14.68,6.28-29.11,18.65-42.89,12.33-13.73,25.21-20.69,38.26-20.69,5.13,0,9.12,1.44,12.2,4.41,3.06,2.95,4.55,6.77,4.55,11.67,0,2.93-.56,6.47-1.68,10.52-20.91,13.67-36.65,25.87-46.81,36.29-2-2.05-2.98-4.26-2.98-6.72,0-.86.13-1.74.39-2.64.51,2.36,2.32,3.69,5.15,3.69,2.12,0,3.99-.74,5.55-2.21,1.59-1.49,2.39-3.29,2.39-5.36,0-3.99-2.43-6.28-6.66-6.28-3.18,0-5.93,1.26-8.15,3.75-2.18,2.43-3.28,5.4-3.28,8.82,0,3.94,1.46,7.42,4.34,10.37-5.45,5.81-9.83,11.29-13.04,16.33-5.98-3.98-8.9-10.23-8.9-19.04Zm69.21-29.64c-3.59,8.14-8.59,15.32-14.9,21.38-7.39,7.1-14.49,10.7-21.11,10.7-1.4,0-2.76-.21-4.06-.63,8.44-8.36,21.66-18.76,39.35-30.96l.72-.49Zm-43.42,34.93c2.58,1.01,5.02,1.52,7.26,1.52,8.07,0,16.53-4.23,25.16-12.57,8.38-8.1,14.36-17.62,17.78-28.32,5.17-3.49,10.08-6.74,14.67-9.69-.49,1.26-.94,2.49-1.36,3.68-3.81,10.47-6.6,17.68-8.29,21.45-1.67,3.72-4,7.81-6.92,12.16-6.2,9.31-13.74,16.68-22.38,21.91-8.6,5.2-17.6,7.84-26.76,7.84-4.3,0-8.25-.66-11.76-1.97,3.55-5.55,7.78-10.92,12.61-16.02Z"/>
    <path class="cls-1" d="m770.23,154.87c-2.13-2.71-4.81-4.09-7.99-4.09-2.4,0-4.81.92-7.16,2.73l13.91-22.48-3.7.85c-1.84.43-3.41.64-4.64.64-1.14,0-2.32-.2-3.52-.6l-1.2-.4-65.24,107.27,4.28-1.61c1.43-.54,2.9-.81,4.37-.81.99,0,2.33.19,3.97.57l1.12.26,26.33-43.93c.84,2.29,2.93,3.56,6.01,3.56,5.06,0,11.74-2.79,20.42-8.52,10.68-7.05,16.09-15.06,16.09-23.82,0-3.78-1.03-7.01-3.06-9.61Zm-35.58,35.37c0-2.12,1.7-6.96,9.77-18.01,10.92-14.93,15.52-17.16,17.29-17.16s2.81.57,2.81,3.34c0,5.25-3.66,12.34-10.89,21.08-8.91,10.77-14.16,13.03-17,13.03-1.28,0-1.98-.36-1.98-2.28Z"/>
    <path class="cls-1" d="m794.52,147.27c2.21,0,4.23-.94,6.02-2.79,1.78-1.84,2.68-3.88,2.68-6.06,0-3.03-1.81-4.84-4.84-4.84-2.14,0-4.17.93-6.03,2.76-1.87,1.84-2.82,3.84-2.82,5.94,0,3.13,1.87,4.99,4.99,4.99Z"/>
    <path class="cls-1" d="m878.74,167.84l-.38-.05c-1.25,0-2.19,1.05-2.79,1.85-11.21,15.09-20.66,22.74-28.08,22.74-3.84,0-5.47-1.48-5.47-4.93,0-3.04,1.53-6.94,4.53-11.61,11.02-2.24,18.74-4.59,23.58-7.19,5.28-2.83,7.95-6.43,7.95-10.67,0-2.05-.84-3.79-2.49-5.19-1.57-1.33-3.48-2-5.68-2-4.5,0-10.08,1.85-17.05,5.65-8.59,4.69-14.39,9.95-17.41,15.73-10.61,13.52-19.05,20.37-25.09,20.37-3.57,0-5.09-1.66-5.09-5.54,0-5.29,2.98-12.03,8.86-20.05,7.19-9.8,11.68-11.85,14.18-11.85,1.8,0,2.13.62,2.13,1.83,0,2.24-1.47,4.06-4.49,5.55-5.29,2.59-7.86,5.48-7.86,8.85,0,3.13,1.87,4.99,4.99,4.99,2.91,0,5.63-1.94,8.32-5.93,2.52-3.73,3.79-7.55,3.79-11.34,0-7.18-4.5-8.25-7.19-8.25-3.39,0-7.57,1.46-12.75,4.45-5.97,3.38-10.8,7.47-14.35,12.17-1.4,1.85-2.52,3.69-3.39,5.52-12.41,16.96-17.67,19.62-19.74,19.62-1.68,0-1.98-.62-1.98-1.83,0-1.32.6-3.89,3.48-8.65l18.94-31.12-3.32.47c-2.39.34-4.25.52-5.53.52-.79,0-1.92-.17-3.36-.49l-1.13-.26-12.41,21.08c-3.66,6.26-5.44,10.89-5.44,14.13,0,2.93.95,5.42,2.82,7.41,1.9,2.01,4.29,3.04,7.1,3.04,4.71,0,10.81-4.76,18.52-14.47.18,3.79,1.57,7.13,4.18,9.91,2.83,3.02,6.28,4.56,10.25,4.56,5.98,0,12.86-4.34,21.04-13.27.75-.82,1.44-1.59,2.09-2.31,0,.2-.03.39-.03.59,0,4.24,1.36,7.83,4.03,10.67,2.7,2.87,6.09,4.32,10.06,4.32,8.06,0,17.27-6.53,28.16-19.96l3.27-4.1c1.5-1.92,1.7-2.33,1.7-2.94,0-.98-.59-1.76-1.5-1.99Zm-14.95-3.72c-3.82,2.58-8.35,4.72-13.53,6.4,3.22-4.12,6.5-7.61,9.79-10.4,5.05-4.29,7.98-5.19,9.55-5.19,1.07,0,1.07.28,1.07.84,0,2.42-2.38,5.31-6.88,8.35Z"/>
  </g>
  <text class="cls-2" transform="translate(739.42 253.8)"><tspan x="0" y="0">INDIAN CUISINE</tspan></text>
</svg>